<svg width="47" height="40" viewBox="0 0 47 50" fill="none" xmlns="http://www.w3.org/2000/svg">
    <path d="M23.6261 3.52405V38.4693L29.2763 39.7756L40.8896 43.5507L40.9381 8.55378L23.6261 3.52405Z" fill="#D2D3F4" />
    <path d="M6.77429 8.74962L23.6261 3.52405L23.3977 42.078L16.3433 40.4615L6.89142 43.7466L6.77429 8.74962Z" fill="#9DA0F4" />
    <path d="M0.817411 7.05438L0.768066 41.8849L6.8914 43.7466V21.9469L17.473 47.1759L23.8905 49.1845V14.2557L17.6199 12.1491L17.6688 34.0471L6.8914 8.70341L0.817411 7.05438Z" fill="white" />
    <path
        d="M0.817383 7.05439L23.8415 0L46.768 6.80919L46.6212 41.8849L40.8895 43.5508L29.671 24.3472L29.5731 47.4696L23.8904 49.1845V14.2557L17.6198 12.1491L23.6347 10.1515L29.6221 12.0892L40.5084 28.3535L40.6173 8.73631L23.6127 3.5977L6.89138 8.70341L0.817383 7.05439Z"
        fill="#8184DF"
    />
</svg>